<svg width="0" height="0" class="hidden">
  <symbol fill="none" xmlns="http://www.w3.org/2000/svg" viewBox="0 0 53 47" id="sound">
   
<path d="M28.404 0.412994C27.428 -0.139006 26.273 -0.121006 25.314 0.456994C25.268 0.483994 25.224 0.515994 25.184 0.549994L11.634 12.013H1C0.447 12.013 0 12.46 0 13.013V32.013C0 32.279 0.105 32.533 0.293 32.72C0.481 32.907 0.734 33.013 1 33.013L11.61 33.008L25.153 45.448C25.203 45.494 25.257 45.534 25.314 45.568C25.806 45.865 26.351 46.014 26.896 46.014C27.413 46.013 27.929 45.88 28.404 45.612C29.403 45.048 30 44.018 30 42.857V3.16899C30 2.00799 29.403 0.977994 28.404 0.412994ZM28 42.857C28 43.288 27.783 43.667 27.421 43.872C27.266 43.959 26.873 44.127 26.421 43.898L13 31.569V27.013C13 26.46 12.553 26.013 12 26.013C11.447 26.013 11 26.46 11 27.013V31.009L2 31.013V14.013H11V18.013C11 18.566 11.447 19.013 12 19.013C12.553 19.013 13 18.566 13 18.013V13.477L26.405 2.13699C26.866 1.89499 27.265 2.06699 27.421 2.15499C27.783 2.35999 28 2.73899 28 3.16899V42.857Z" fill="black"/>
<path d="M38.797 4.06596C38.274 3.88896 37.706 4.16896 37.528 4.69196C37.351 5.21396 37.631 5.78296 38.154 5.96096C45.255 8.37196 50.026 15.024 50.026 22.514C50.026 29.997 45.264 36.65 38.177 39.068C37.655 39.246 37.375 39.814 37.554 40.338C37.696 40.753 38.084 41.015 38.5 41.015C38.607 41.015 38.716 40.998 38.823 40.961C46.719 38.268 52.025 30.855 52.025 22.515C52.026 14.166 46.71 6.75296 38.797 4.06596Z" fill="black"/>
<path d="M43.026 22.513C43.026 16.541 39.017 11.211 33.277 9.55098C32.744 9.39998 32.193 9.70298 32.039 10.235C31.886 10.765 32.191 11.32 32.723 11.473C37.612 12.886 41.027 17.426 41.027 22.513C41.027 27.6 37.612 32.14 32.723 33.553C32.192 33.706 31.886 34.261 32.039 34.791C32.166 35.229 32.565 35.514 33 35.514C33.092 35.514 33.185 35.501 33.277 35.475C39.018 33.815 43.026 28.485 43.026 22.513Z" fill="black"/>

  </symbol>
  <symbol fill="none" xmlns="http://www.w3.org/2000/svg" viewBox="0 0 30 30" id="points">
    <path d="M15 30c8.285 0 15-6.715 15-15S23.285 0 15 0 0 6.715 0 15s6.715 15 15 15zM6.861 14.678L21.328 9.1c.674-.24 1.26.164 1.037 1.177l-2.46 11.602c-.182.82-.675 1.025-1.354.633l-3.75-2.766-1.81 1.74c-.2.2-.37.37-.757.37l.264-3.815 6.955-6.275c.305-.264-.07-.416-.469-.153l-8.59 5.409-3.703-1.155c-.802-.258-.82-.803.17-1.19z" fill="#B3B3B3"></path>
  </symbol>
  <symbol fill="none" xmlns="http://www.w3.org/2000/svg" viewBox="0 0 39 39" id="plug">
    <g clip-path="url(#clip0)" fill="#000">
      <path d="M29.592 8.777H27.7V2.469c0-1.072-.82-1.892-1.892-1.892-1.073 0-1.893.82-1.893 1.892v6.308h-8.83V2.469c0-1.072-.82-1.892-1.893-1.892-1.072 0-1.892.82-1.892 1.892v6.308H9.408c-.379 0-.631.252-.631.63v4.794a12.58 12.58 0 003.343 8.516c1.892 2.145 2.965 4.92 2.965 7.758v1.64a3.123 3.123 0 003.154 3.154h.63v2.523c0 .379.253.631.631.631s.63-.252.63-.63v-2.524h.632a3.123 3.123 0 003.153-3.154v-1.577c0-2.901 1.01-5.613 2.965-7.758a12.737 12.737 0 003.343-8.578V9.408c0-.379-.252-.631-.63-.631zm-4.415-6.308c0-.378.252-.63.63-.63.38 0 .631.252.631.63v6.308h-1.261V2.469zm-12.615 0c0-.315.252-.63.63-.63.379 0 .631.252.631.63v6.308h-1.262V2.469zm16.4 11.67c0 2.901-1.01 5.613-2.965 7.758a12.737 12.737 0 00-3.343 8.578v1.64c0 1.073-.82 1.893-1.892 1.893h-2.524a1.858 1.858 0 01-1.892-1.893v-1.577c0-3.153-1.198-6.244-3.343-8.578-1.892-2.145-2.964-4.92-2.964-7.758v-4.163h18.923v4.1z"></path>
      <path d="M22.023 16.977h-3.532l3.343-3.343a.61.61 0 000-.883.61.61 0 00-.883 0l-4.416 4.415c-.189.19-.252.442-.126.694.063.252.316.378.568.378h3.532l-3.343 3.344a.61.61 0 000 .883.573.573 0 00.442.189.57.57 0 00.441-.19l4.416-4.415c.189-.189.252-.441.126-.694-.063-.252-.316-.378-.568-.378z"></path>
    </g>
    <defs>
      <clipPath id="clip0">
        <path fill="#fff" transform="translate(.577 .577)" d="M0 0h37.846v37.846H0z"></path>
      </clipPath>
    </defs>
  </symbol>
  <symbol fill="none" xmlns="http://www.w3.org/2000/svg" viewBox="0 0 58 60" id="time">
<path d="M30.634 37.989C31.675 37.908 32.624 37.377 33.24 36.53L42.603 23.586C42.89 23.189 42.847 22.641 42.499 22.293C42.151 21.946 41.603 21.903 41.206 22.189L28.26 31.555C27.416 32.169 26.885 33.118 26.804 34.159C26.723 35.2 27.1 36.219 27.837 36.956C28.508 37.628 29.413 38 30.354 38C30.447 38 30.54 37.996 30.634 37.989ZM28.798 34.315C28.833 33.858 29.067 33.441 29.435 33.173L37.332 27.46L31.621 35.355C31.351 35.726 30.934 35.959 30.477 35.995C30.022 36.025 29.575 35.867 29.25 35.542C28.928 35.219 28.762 34.771 28.798 34.315Z" fill="black"/>
<path d="M53.034 19.564C53.024 19.543 53.024 19.521 53.013 19.5C53.001 19.48 52.982 19.469 52.969 19.45C51.958 17.716 50.762 16.103 49.404 14.641L51.552 12.494L52.966 13.908L57.208 9.665L52.966 5.423L48.723 9.665L50.138 11.08L47.99 13.227C46.528 11.869 44.916 10.672 43.181 9.661C43.162 9.648 43.151 9.629 43.131 9.617C43.11 9.605 43.088 9.606 43.067 9.595C39.974 7.813 36.499 6.626 32.794 6.191V5H34.294C35.673 5 36.794 3.879 36.794 2.5C36.794 1.121 35.672 0 34.293 0H25.293C23.914 0 22.793 1.121 22.793 2.5C22.793 3.879 23.914 5 25.293 5H26.793V6.156C25.713 6.271 24.635 6.447 23.569 6.691C23.031 6.814 22.694 7.351 22.818 7.889C22.941 8.427 23.478 8.765 24.016 8.64C24.936 8.429 25.865 8.27 26.796 8.163L27.869 8.08C28.197 8.055 28.499 8.037 28.793 8.023V10C28.793 10.553 29.24 11 29.793 11C30.346 11 30.793 10.553 30.793 10V8.03C34.554 8.203 38.098 9.213 41.249 10.875L40.263 12.582C39.987 13.061 40.151 13.672 40.629 13.948C40.786 14.039 40.958 14.082 41.128 14.082C41.474 14.082 41.81 13.903 41.995 13.582L42.978 11.879C46.107 13.864 48.765 16.522 50.75 19.651L49.047 20.634C48.57 20.91 48.406 21.521 48.683 22C48.869 22.321 49.204 22.5 49.55 22.5C49.72 22.5 49.892 22.457 50.049 22.366L51.756 21.38C53.441 24.576 54.454 28.178 54.605 31.999H52.63C52.077 31.999 51.63 32.446 51.63 32.999C51.63 33.552 52.077 33.999 52.63 33.999H54.605C54.454 37.82 53.441 41.422 51.756 44.618L50.049 43.632C49.571 43.356 48.959 43.518 48.683 43.998C48.407 44.477 48.571 45.088 49.049 45.364L50.752 46.347C48.767 49.476 46.109 52.134 42.98 54.119L41.997 52.416C41.72 51.936 41.107 51.773 40.631 52.05C40.152 52.326 39.988 52.938 40.265 53.416L41.251 55.123C38.1 56.785 34.556 57.795 30.795 57.968V56C30.795 55.447 30.348 55 29.795 55C29.242 55 28.795 55.447 28.795 56V57.976C27.198 57.921 25.596 57.721 24.019 57.359C23.481 57.23 22.944 57.572 22.821 58.11C22.697 58.648 23.034 59.185 23.572 59.308C25.568 59.768 27.607 60 29.63 60C29.679 60 29.726 59.997 29.775 59.996C29.782 59.996 29.787 60 29.793 60C29.801 60 29.808 59.995 29.816 59.995C34.623 59.962 39.133 58.664 43.035 56.422C43.066 56.408 43.099 56.401 43.129 56.383C43.149 56.371 43.16 56.352 43.179 56.339C47.218 53.985 50.593 50.614 52.952 46.578C52.971 46.551 52.995 46.53 53.012 46.5C53.024 46.479 53.023 46.457 53.033 46.436C55.317 42.476 56.63 37.89 56.63 33C56.63 28.11 55.317 23.524 53.034 19.564ZM52.965 8.251L54.379 9.665L52.965 11.08L51.55 9.665L52.965 8.251ZM28.793 6.021V3H25.293C25.018 3 24.793 2.775 24.793 2.5C24.793 2.225 25.018 2 25.293 2H34.293C34.568 2 34.793 2.225 34.793 2.5C34.793 2.775 34.568 3 34.293 3H30.793V6.021C30.445 6.007 30.113 6 29.793 6C29.765 6 29.733 6.002 29.705 6.002C29.68 6.002 29.655 6 29.63 6C29.466 6 29.302 6.011 29.138 6.014C29.022 6.017 28.913 6.016 28.793 6.021Z" fill="black"/>
<path d="M20.793 14H15.793C15.24 14 14.793 14.447 14.793 15C14.793 15.553 15.24 16 15.793 16H20.793C21.346 16 21.793 15.553 21.793 15C21.793 14.447 21.346 14 20.793 14Z" fill="black"/>
<path d="M20.793 21H10.793C10.24 21 9.793 21.447 9.793 22C9.793 22.553 10.24 23 10.793 23H20.793C21.346 23 21.793 22.553 21.793 22C21.793 21.447 21.346 21 20.793 21Z" fill="black"/>
<path d="M20.793 28H5.793C5.24 28 4.793 28.447 4.793 29C4.793 29.553 5.24 30 5.793 30H20.793C21.346 30 21.793 29.553 21.793 29C21.793 28.447 21.346 28 20.793 28Z" fill="black"/>
<path d="M20.793 35H1.793C1.24 35 0.792999 35.447 0.792999 36C0.792999 36.553 1.24 37 1.793 37H20.793C21.346 37 21.793 36.553 21.793 36C21.793 35.447 21.346 35 20.793 35Z" fill="black"/>
<path d="M20.793 42H7.793C7.24 42 6.793 42.447 6.793 43C6.793 43.553 7.24 44 7.793 44H20.793C21.346 44 21.793 43.553 21.793 43C21.793 42.447 21.346 42 20.793 42Z" fill="black"/>
<path d="M20.793 49H13.793C13.24 49 12.793 49.447 12.793 50C12.793 50.553 13.24 51 13.793 51H20.793C21.346 51 21.793 50.553 21.793 50C21.793 49.447 21.346 49 20.793 49Z" fill="black"/>

 </symbol>
  <symbol xmlns="http://www.w3.org/2000/svg" viewBox="0 0 30 30" id="tv">
<path d="M15 30C23.2852 30 30 23.2852 30 15C30 6.71484 23.2852 0 15 0C6.71484 0 0 6.71484 0 15C0 23.2852 6.71484 30 15 30ZM6.86133 14.6777L21.3281 9.09961C22.002 8.85938 22.5879 9.26367 22.3652 10.2773L19.9043 21.8789C19.7227 22.6992 19.2305 22.9043 18.5508 22.5117L14.8008 19.7461L12.9902 21.4863C12.791 21.6855 12.6211 21.8555 12.2344 21.8555L12.498 18.041L19.4531 11.7656C19.7578 11.502 19.3828 11.3496 18.9844 11.6133L10.3945 17.0215L6.69141 15.8672C5.88867 15.6094 5.87109 15.0645 6.86133 14.6777Z"/>
  </symbol>
  <symbol xmlns="http://www.w3.org/2000/svg" viewBox="0 0 30 30" id="vk">
<path d="M15 0C6.71779 0 0 6.71779 0 15C0 23.2822 6.71779 30 15 30C23.2822 30 30 23.2822 30 15C30 6.71779 23.2822 0 15 0ZM22.6074 16.6258C23.3129 17.3006 24.0491 17.9448 24.6626 18.7117C24.9387 19.0491 25.2147 19.3865 25.3988 19.7853C25.6748 20.3374 25.4294 20.9509 24.9387 20.9816H21.8712C21.0736 21.0429 20.4601 20.7362 19.908 20.184C19.4785 19.7546 19.0798 19.2945 18.681 18.8344C18.5276 18.6503 18.3436 18.4663 18.1288 18.3436C17.6994 18.0675 17.3313 18.1595 17.1166 18.589C16.8712 19.0491 16.8098 19.5399 16.7791 20.0307C16.7485 20.7669 16.5337 20.9509 15.7975 20.9816C14.2331 21.0429 12.7607 20.8282 11.411 20.0307C10.2147 19.3252 9.2638 18.3742 8.46626 17.2699C6.87117 15.1227 5.67485 12.7607 4.57055 10.3374C4.32515 9.78528 4.5092 9.5092 5.1227 9.47853C6.13497 9.44785 7.11656 9.44785 8.12883 9.47853C8.52761 9.47853 8.80368 9.72393 8.95706 10.092C9.5092 11.411 10.1534 12.6994 10.9816 13.865C11.1963 14.1718 11.4417 14.4785 11.7485 14.7239C12.1166 14.9693 12.362 14.8773 12.546 14.4785C12.638 14.2331 12.6994 13.9571 12.7301 13.681C12.8221 12.7607 12.8221 11.8405 12.6687 10.9202C12.5767 10.3067 12.2699 9.93865 11.6871 9.81595C11.3804 9.7546 11.4417 9.66258 11.5644 9.47853C11.8098 9.20245 12.0552 9.0184 12.5153 9.0184H15.9816C16.5337 9.1411 16.6564 9.35583 16.7178 9.90797V13.773C16.7178 13.9877 16.8098 14.6319 17.2086 14.7546C17.5153 14.8466 17.7301 14.6012 17.9141 14.4172C18.7423 13.5276 19.3252 12.4847 19.8773 11.411C20.1227 10.9202 20.3067 10.4294 20.5215 9.93865C20.6748 9.57055 20.8896 9.3865 21.319 9.3865H24.6626C24.7546 9.3865 24.8466 9.3865 24.9693 9.41718C25.5215 9.5092 25.6748 9.7546 25.5215 10.3067C25.2454 11.1656 24.7239 11.9018 24.2025 12.6074C23.6503 13.3742 23.0368 14.1104 22.4847 14.908C21.9325 15.6442 21.9632 16.0123 22.6074 16.6258Z" />
  </symbol>
  <symbol fill="none" xmlns="http://www.w3.org/2000/svg" viewBox="0 0 60 60" id="battery">
    <path d="M42.536 4H36V0H24v4h-6.536A3.468 3.468 0 0014 7.464v49.072A3.468 3.468 0 0017.464 60h25.072A3.468 3.468 0 0046 56.536V7.464A3.468 3.468 0 0042.536 4zM16 19h28v12H16V19zm0 14h28v12H16V33zM26 2h8v2h-8V2zm-8.536 4h25.072C43.344 6 44 6.656 44 7.464V17H16V7.464C16 6.656 16.656 6 17.464 6zm25.072 52H17.464A1.465 1.465 0 0116 56.536V47h28v9.536c0 .808-.656 1.464-1.464 1.464z" fill="#000"></path>
  </symbol>
  <symbol fill="none" xmlns="http://www.w3.org/2000/svg" viewBox="0 0 39 39" id="charging">
    <g clip-path="url(#clip0)" fill="#000">
      <path d="M26.031 3.73H12.969a2.618 2.618 0 00-2.615 2.616v29.462a2.618 2.618 0 002.615 2.615h13.062a2.618 2.618 0 002.615-2.615V6.346a2.618 2.618 0 00-2.615-2.615zm1.354 32.078c0 .746-.608 1.354-1.354 1.354H12.969a1.355 1.355 0 01-1.354-1.354V6.346c0-.746.608-1.354 1.354-1.354h13.062c.746 0 1.354.608 1.354 1.354v29.462z"></path>
      <path d="M22.97.577h-6.94a.63.63 0 00-.63.63v3.155c0 .348.282.63.63.63h6.94a.63.63 0 00.63-.63V1.208a.63.63 0 00-.63-.631zm-.631 3.154h-5.677V1.838h5.677v1.893zM24.132 17.9a.63.63 0 00-.532-.292h-3.785V11.93a.63.63 0 00-1.202-.267l-4.415 9.461a.63.63 0 00.571.898h3.785V27.7a.63.63 0 001.202.267l4.416-9.462a.631.631 0 00-.04-.605zm-5.578 2.862H15.76l2.794-5.988v5.988zm1.261 4.095v-5.988h2.794l-2.794 5.988z"></path>
    </g>
    <defs>
      <clipPath id="clip0">
        <path fill="#fff" transform="translate(.577 .577)" d="M0 0h37.846v37.846H0z"></path>
      </clipPath>
    </defs>
  </symbol>
  <symbol fill="none" xmlns="http://www.w3.org/2000/svg" viewBox="0 0 10 8" id="check">
    <path d="M9.45.552A1.636 1.636 0 007.064.46L3.67 3.862l-.734-.736c-.642-.643-1.743-.643-2.386 0H.46c-.642.644-.642 1.747 0 2.391L2.477 7.54c.367.368.826.46 1.193.46.458 0 .825-.184 1.192-.46L9.45 2.942c.642-.643.642-1.747 0-2.39z" fill="#E01F3D"></path>
  </symbol>
  <symbol fill="none" xmlns="http://www.w3.org/2000/svg" viewBox="0 0 20 20" id="close">
    <g opacity=".7" clip-path="url(#clip0)">
      <path d="M13.556 10l5.777-5.778c.89-.889.89-2.222 0-3L18.89.778c-.889-.89-2.222-.89-3 0L10 6.444 4.222.667c-.889-.89-2.222-.89-3.11 0l-.445.444c-.89.889-.89 2.222 0 3L6.444 10 .667 15.778c-.89.889-.89 2.222 0 3l.444.555c.889.89 2.222.89 3 0L10 13.556l5.778 5.777c.889.89 2.222.89 3 0l.444-.444c.89-.889.89-2.222 0-3L13.556 10z" fill="#fff"></path>
    </g>
    <defs>
      <clipPath id="clip0">
        <path fill="#fff" d="M0 0h20v20H0z"></path>
      </clipPath>
    </defs>
  </symbol>
  <symbol xmlns="http://www.w3.org/2000/svg" viewBox="0 0 30 30" id="in">
    <path d="M17.871 15A2.868 2.868 0 0115 17.871 2.868 2.868 0 0112.129 15 2.868 2.868 0 0115 12.129 2.868 2.868 0 0117.871 15z" ></path>
    <path d="M21.715 9.92a2.66 2.66 0 00-.645-.99 2.66 2.66 0 00-.99-.645c-.305-.117-.762-.258-1.6-.299-.908-.04-1.183-.052-3.48-.052-2.303 0-2.572.005-3.48.052-.838.041-1.295.182-1.6.3a2.66 2.66 0 00-.99.644 2.66 2.66 0 00-.645.99c-.117.305-.258.762-.299 1.6-.04.908-.052 1.177-.052 3.48 0 2.297.011 2.572.052 3.48.041.838.176 1.295.3 1.6.14.375.357.715.644.99.275.287.615.504.99.645.305.117.762.258 1.6.299.908.04 1.177.052 3.48.052s2.572-.005 3.48-.052c.838-.041 1.295-.176 1.6-.3a2.844 2.844 0 001.635-1.634c.117-.305.258-.762.299-1.6.04-.908.052-1.183.052-3.48 0-2.303-.005-2.572-.052-3.48-.041-.838-.182-1.295-.3-1.6zM15 19.424a4.424 4.424 0 110-8.847 4.424 4.424 0 010 8.847zm4.6-7.986a1.033 1.033 0 01-1.032-1.032 1.033 1.033 0 012.063 0c0 .569-.463 1.031-1.031 1.031z"></path>
    <path d="M15 0C6.715 0 0 6.715 0 15s6.715 15 15 15 15-6.715 15-15S23.285 0 15 0zm8.56 18.55c-.04.915-.187 1.542-.398 2.093a4.392 4.392 0 01-2.52 2.52c-.544.21-1.171.357-2.091.398-.92.04-1.213.052-3.551.052s-2.63-.011-3.55-.052c-.915-.041-1.542-.188-2.093-.399a4.193 4.193 0 01-1.523-.996c-.44-.428-.78-.95-.996-1.523-.211-.545-.358-1.172-.399-2.092-.04-.92-.052-1.213-.052-3.551s.011-2.63.052-3.55c.041-.915.188-1.542.399-2.093a4.194 4.194 0 01.996-1.523c.428-.44.95-.78 1.523-.996.551-.211 1.172-.358 2.092-.399.92-.04 1.213-.052 3.551-.052s2.63.011 3.55.052c.915.041 1.542.188 2.093.399a4.193 4.193 0 011.523.996c.44.428.78.95.996 1.523.211.551.358 1.172.399 2.092.04.92.052 1.213.052 3.551s-.011 2.63-.052 3.55z"></path>
  </symbol>
  <symbol fill="none" xmlns="http://www.w3.org/2000/svg" viewBox="0 0 40 40" id="logo">
    <path d="M20 26c3.3 0 6-2.7 6-6s-2.7-6-6-6-6 2.7-6 6 2.7 6 6 6zm0-26c-2 0-4.1.3-6 .9V12c4.4-3.3 10.7-2.4 14 2 3.3 4.4 2.4 10.7-2 14-4.4 3.3-10.7 2.4-14-2-1.3-1.7-2-3.8-2-6V2.7C.4 8.2-2.8 20.4 2.7 30c5.5 9.6 17.7 12.8 27.3 7.3 9.6-5.5 12.8-17.7 7.3-27.3C33.8 3.8 27.2 0 20 0z" fill="#E01F3D"></path>
  </symbol>
  <symbol xmlns="http://www.w3.org/2000/svg" viewBox="0 0 30 30" id="f">
    <path d="M17.42 29.807c-.123.017-.252.04-.375.058.123-.023.246-.04.375-.058zm.299-.053zm-1.014.146zm.293-.035c-.07.012-.14.018-.21.024.064-.006.14-.012.21-.024zm1.131-.193l-.158.035.158-.035zm1.014-.252l-.13.035.13-.035zm-.311.082l-.14.035a.55.55 0 00.14-.035zm-.398.105l-.147.036c.047-.018.1-.03.147-.036zm-2.174.34l-.235.018.235-.018zM30 15c0-8.285-6.715-15-15-15S0 6.715 0 15s6.715 15 15 15c.088 0 .176 0 .264-.006V18.322H12.04v-3.756h3.223v-2.765c0-3.205 1.957-4.951 4.816-4.951 1.371 0 2.549.1 2.889.146v3.352H21c-1.553 0-1.857.738-1.857 1.822v2.39h3.72l-.486 3.756h-3.234V29.42C25.413 27.62 30 21.85 30 15zM15.99 29.965zm-.474.023c-.082 0-.164.006-.246.006.076 0 .158 0 .246-.006z"></path>
  </symbol>
  <symbol fill="none" xmlns="http://www.w3.org/2000/svg" viewBox="0 0 41 41" id="noise">
    <g clip-path="url(#clip0)" fill="#000">
      <path d="M12.592.788C6.084.788.788 6.525.788 13.608a9.503 9.503 0 001.307 4.667c.393.67.73 1.372 1.006 2.098a1.32 1.32 0 01-.438 1.472 3.246 3.246 0 00-1.219 2.551 3.279 3.279 0 001.438 2.723c.325.22.522.584.53.976v5.482c0 3.616 2.647 6.558 5.901 6.558 3.255 0 5.902-2.942 5.902-6.558a9.222 9.222 0 013.214-7.03 16.61 16.61 0 005.967-12.971c0-7.05-5.295-12.788-11.804-12.788zm4.984 24.763a10.529 10.529 0 00-3.672 8.026c0 2.893-2.06 5.246-4.59 5.246-2.531 0-4.59-2.353-4.59-5.246v-5.482a2.54 2.54 0 00-1.073-2.04 1.975 1.975 0 01-.895-1.659 1.94 1.94 0 01.747-1.545 2.623 2.623 0 00.83-2.93 15.256 15.256 0 00-1.1-2.294A8.225 8.225 0 012.1 13.576C2.1 7.248 6.807 2.1 12.592 2.1c5.786 0 10.493 5.148 10.493 11.476a15.338 15.338 0 01-5.509 11.975z"></path>
      <path d="M12.592 4.067c-3.654 0-6.77 2.592-7.98 6.214a10.493 10.493 0 00-.546 3.325c0 .787 0 3.194 1.504 4.697a.656.656 0 00.927-.927 4.012 4.012 0 01-.993-2.144c.106-.007.21-.015.32-.015 3.01-.002 5.457 2.753 5.457 6.136 0 .314-.015.61-.04.9-.326.35-.673.678-1.04.984a7.815 7.815 0 00-2.855 6.405.656.656 0 101.312 0 6.51 6.51 0 012.39-5.401 8.993 8.993 0 003.512-7.478c0-4.105-3.09-7.45-6.886-7.45a6.34 6.34 0 00-1.298.138 7.102 7.102 0 016.216-4.072c3.978 0 7.214 3.69 7.214 8.226a11.955 11.955 0 01-4.225 9.293c-.09.078-.19.162-.3.253-1.304 1.084-4.019 3.344-4.652 9.042a.656.656 0 00.58.722.67.67 0 00.072.006.656.656 0 00.65-.583c.576-5.175 2.926-7.13 4.189-8.18.116-.096.223-.186.318-.268a13.235 13.235 0 004.68-10.285c0-5.26-3.825-9.538-8.526-9.538zm-4.918 6.558c3.074 0 5.574 2.754 5.574 6.138a8.377 8.377 0 01-.721 3.607c-.44-3.646-3.275-6.466-6.702-6.466-.152 0-.297.011-.444.021v-.32c0-.877.126-1.75.373-2.591a4.993 4.993 0 011.92-.389zm25.903 5.246a7.726 7.726 0 012.434-5.443.656.656 0 10-.933-.918 9.007 9.007 0 00-2.813 6.361 9.007 9.007 0 002.813 6.361.656.656 0 10.932-.918 7.727 7.727 0 01-2.433-5.443z"></path>
      <path d="M37.948 12.102a.656.656 0 00-.926.054 5.41 5.41 0 000 7.43.656.656 0 00.98-.872 4.1 4.1 0 010-5.686.656.656 0 00-.054-.926z"></path>
      <path d="M39.966 14.12a.656.656 0 00-.926-.048 2.29 2.29 0 000 3.598.656.656 0 10.878-.975 1.17 1.17 0 01-.44-.824 1.17 1.17 0 01.44-.824.656.656 0 00.048-.926zm-9.668 1.751c0-2.885 1.293-5.674 3.738-8.055a.657.657 0 10-.918-.94c-2.702 2.634-4.131 5.744-4.131 8.995 0 3.25 1.43 6.361 4.13 8.995a.657.657 0 00.919-.94c-2.445-2.381-3.738-5.17-3.738-8.055z"></path>
      <path d="M27.02 15.871c0-3.603 1.522-7.073 4.404-10.033a.657.657 0 00-.94-.918c-3.124 3.213-4.776 7-4.776 10.951 0 3.951 1.652 7.738 4.776 10.952a.657.657 0 00.94-.919c-2.882-2.96-4.405-6.43-4.405-10.033z"></path>
    </g>
    <defs>
      <clipPath id="clip0">
        <path fill="#fff" transform="translate(.788 .788)" d="M0 0h39.423v39.346H0z"></path>
      </clipPath>
    </defs>
  </symbol>
  <symbol xmlns="http://www.w3.org/2000/svg" viewBox="0 0 14 15" id="phone">
    <path d="M13.745 13.092c-.254.502-.763.752-1.272 1.003-.637.376-1.146.5-1.782.5-.891 0-1.782-.375-2.546-.626-.636-.25-1.145-.5-1.781-.751-1.782-1.128-3.819-3.133-4.837-4.762a11.386 11.386 0 01-.89-1.754C.381 5.825 0 5.073 0 4.072c0-.627.127-1.254.51-1.88.254-.501.508-1.003 1.017-1.253.382 0 1.018-.126 1.4-.126h.255c.254.126.382.502.509.752.254.627.636 1.128.89 1.754.255.251.51.502.51.752 0 .627-1.782 1.504-1.782 2.005 0 .25.255.626.382.877 1.018 1.754 2.29 3.007 4.073 4.01.254.125.636.375.89.375.51 0 1.4-1.754 2.037-1.754.254 0 .509.25.763.501.51.376 1.146.627 1.655 1.003.255.125.636.25.764.5v.251c.127.251 0 .877-.127 1.253z"></path>
  </symbol>
</svg>